<?xml version="1.0" encoding="UTF-8" standalone="no"?>
<!-- Created with Inkscape (http://www.inkscape.org/) -->
<svg
   xmlns:dc="http://purl.org/dc/elements/1.1/"
   xmlns:cc="http://web.resource.org/cc/"
   xmlns:rdf="http://www.w3.org/1999/02/22-rdf-syntax-ns#"
   xmlns:svg="http://www.w3.org/2000/svg"
   xmlns="http://www.w3.org/2000/svg"
   xmlns:xlink="http://www.w3.org/1999/xlink"
   xmlns:sodipodi="http://sodipodi.sourceforge.net/DTD/sodipodi-0.dtd"
   xmlns:inkscape="http://www.inkscape.org/namespaces/inkscape"
   version="1.0"
   id="svg2"
   sodipodi:version="0.32"
   inkscape:version="0.45"
   sodipodi:docname="cython-logo-C.svg"
   width="207.0625"
   height="196.125"
   sodipodi:docbase="/home/sbehnel/source/Python/pyrex"
   inkscape:output_extension="org.inkscape.output.svg.inkscape"
   inkscape:export-filename="/home/sbehnel/source/Python/pyrex/cython-logo.png"
   inkscape:export-xdpi="90"
   inkscape:export-ydpi="90"
   sodipodi:modified="true">
  <metadata
     id="metadata371">
    <rdf:RDF>
      <cc:Work
         rdf:about="">
        <dc:format>image/svg+xml</dc:format>
        <dc:type
           rdf:resource="http://purl.org/dc/dcmitype/StillImage" />
      </cc:Work>
    </rdf:RDF>
  </metadata>
  <sodipodi:namedview
     inkscape:window-height="780"
     inkscape:window-width="1233"
     inkscape:pageshadow="2"
     inkscape:pageopacity="0.0"
     guidetolerance="10.0"
     gridtolerance="10.0"
     objecttolerance="10.0"
     borderopacity="1.0"
     bordercolor="#666666"
     pagecolor="#ffffff"
     id="base"
     inkscape:zoom="2.1461642"
     inkscape:cx="219.59818"
     inkscape:cy="75.414141"
     inkscape:window-x="0"
     inkscape:window-y="0"
     inkscape:current-layer="svg2"
     width="1052.3622px"
     height="744.09449px"
     units="mm" />
  <defs
     id="defs4">
    <linearGradient
       id="linearGradient2795">
      <stop
         style="stop-color:#b8b8b8;stop-opacity:0.49803922;"
         offset="0"
         id="stop2797" />
      <stop
         style="stop-color:#7f7f7f;stop-opacity:0;"
         offset="1"
         id="stop2799" />
    </linearGradient>
    <linearGradient
       id="linearGradient2787">
      <stop
         style="stop-color:#7f7f7f;stop-opacity:0.5;"
         offset="0"
         id="stop2789" />
      <stop
         style="stop-color:#7f7f7f;stop-opacity:0;"
         offset="1"
         id="stop2791" />
    </linearGradient>
    <linearGradient
       id="linearGradient3676">
      <stop
         style="stop-color:#b2b2b2;stop-opacity:0.5;"
         offset="0"
         id="stop3678" />
      <stop
         style="stop-color:#b3b3b3;stop-opacity:0;"
         offset="1"
         id="stop3680" />
    </linearGradient>
    <linearGradient
       id="linearGradient3236">
      <stop
         style="stop-color:#f4f4f4;stop-opacity:1"
         offset="0"
         id="stop3244" />
      <stop
         style="stop-color:white;stop-opacity:1"
         offset="1"
         id="stop3240" />
    </linearGradient>
    <linearGradient
       id="linearGradient4671">
      <stop
         style="stop-color:#ffd43b;stop-opacity:1;"
         offset="0"
         id="stop4673" />
      <stop
         style="stop-color:#ffe873;stop-opacity:1"
         offset="1"
         id="stop4675" />
    </linearGradient>
    <linearGradient
       id="linearGradient4689">
      <stop
         style="stop-color:#5a9fd4;stop-opacity:1;"
         offset="0"
         id="stop4691" />
      <stop
         style="stop-color:#306998;stop-opacity:1;"
         offset="1"
         id="stop4693" />
    </linearGradient>
    <linearGradient
       x1="224.23996"
       y1="144.75717"
       x2="-65.308502"
       y2="144.75717"
       id="linearGradient2987"
       xlink:href="#linearGradient4671"
       gradientUnits="userSpaceOnUse"
       gradientTransform="translate(100.2702,99.61116)" />
    <linearGradient
       x1="172.94208"
       y1="77.475983"
       x2="26.670298"
       y2="76.313133"
       id="linearGradient2990"
       xlink:href="#linearGradient4689"
       gradientUnits="userSpaceOnUse"
       gradientTransform="translate(100.2702,99.61116)" />
    <linearGradient
       inkscape:collect="always"
       xlink:href="#linearGradient4689"
       id="linearGradient2587"
       gradientUnits="userSpaceOnUse"
       gradientTransform="translate(100.2702,99.61116)"
       x1="172.94208"
       y1="77.475983"
       x2="26.670298"
       y2="76.313133" />
    <linearGradient
       inkscape:collect="always"
       xlink:href="#linearGradient4671"
       id="linearGradient2589"
       gradientUnits="userSpaceOnUse"
       gradientTransform="translate(100.2702,99.61116)"
       x1="224.23996"
       y1="144.75717"
       x2="-65.308502"
       y2="144.75717" />
    <linearGradient
       inkscape:collect="always"
       xlink:href="#linearGradient4689"
       id="linearGradient2248"
       gradientUnits="userSpaceOnUse"
       gradientTransform="translate(100.2702,99.61116)"
       x1="172.94208"
       y1="77.475983"
       x2="26.670298"
       y2="76.313133" />
    <linearGradient
       inkscape:collect="always"
       xlink:href="#linearGradient4671"
       id="linearGradient2250"
       gradientUnits="userSpaceOnUse"
       gradientTransform="translate(100.2702,99.61116)"
       x1="224.23996"
       y1="144.75717"
       x2="-65.308502"
       y2="144.75717" />
    <linearGradient
       inkscape:collect="always"
       xlink:href="#linearGradient4671"
       id="linearGradient2255"
       gradientUnits="userSpaceOnUse"
       gradientTransform="matrix(0.562541,0,0,0.567972,-11.5974,-7.60954)"
       x1="224.23996"
       y1="144.75717"
       x2="-65.308502"
       y2="144.75717" />
    <linearGradient
       inkscape:collect="always"
       xlink:href="#linearGradient4689"
       id="linearGradient2258"
       gradientUnits="userSpaceOnUse"
       gradientTransform="matrix(0.562541,0,0,0.567972,-11.5974,-7.60954)"
       x1="172.94208"
       y1="76.176224"
       x2="26.670298"
       y2="76.313133" />
    <radialGradient
       inkscape:collect="always"
       xlink:href="#linearGradient2795"
       id="radialGradient2801"
       cx="61.518883"
       cy="132.28575"
       fx="61.518883"
       fy="132.28575"
       r="29.036913"
       gradientTransform="matrix(1,0,0,0.177966,0,108.7434)"
       gradientUnits="userSpaceOnUse" />
    <linearGradient
       inkscape:collect="always"
       xlink:href="#linearGradient4671"
       id="linearGradient1475"
       gradientUnits="userSpaceOnUse"
       gradientTransform="matrix(0.562541,0,0,0.567972,33.698482,31.68078)"
       x1="150.96111"
       y1="192.35176"
       x2="112.03144"
       y2="137.27299" />
    <linearGradient
       inkscape:collect="always"
       xlink:href="#linearGradient4689"
       id="linearGradient1478"
       gradientUnits="userSpaceOnUse"
       gradientTransform="matrix(0.562541,0,0,0.567972,33.698482,31.68078)"
       x1="26.648937"
       y1="20.603781"
       x2="135.66525"
       y2="114.39767" />
    <radialGradient
       inkscape:collect="always"
       xlink:href="#linearGradient2795"
       id="radialGradient1480"
       gradientUnits="userSpaceOnUse"
       gradientTransform="matrix(2.382716e-8,-0.296405,1.43676,4.683673e-7,-128.544,150.5202)"
       cx="61.518883"
       cy="132.28575"
       fx="61.518883"
       fy="132.28575"
       r="29.036913" />
    <linearGradient
       inkscape:collect="always"
       xlink:href="#linearGradient4689"
       id="linearGradient3210"
       gradientUnits="userSpaceOnUse"
       gradientTransform="matrix(0.562541,0,0,0.567972,33.698482,31.68078)"
       x1="26.648937"
       y1="20.603781"
       x2="135.66525"
       y2="114.39767" />
    <linearGradient
       inkscape:collect="always"
       xlink:href="#linearGradient4671"
       id="linearGradient3212"
       gradientUnits="userSpaceOnUse"
       gradientTransform="matrix(0.562541,0,0,0.567972,33.698482,31.68078)"
       x1="150.96111"
       y1="192.35176"
       x2="112.03144"
       y2="137.27299" />
  </defs>
  <path
     sodipodi:type="arc"
     style="opacity:0.44382019;fill:url(#radialGradient1480);fill-opacity:1;fill-rule:nonzero;stroke:none;stroke-width:20;stroke-miterlimit:4;stroke-dasharray:none;stroke-opacity:1"
     id="path1894"
     sodipodi:cx="61.518883"
     sodipodi:cy="132.28575"
     sodipodi:rx="48.948284"
     sodipodi:ry="8.6066771"
     d="M 110.46717 132.28575 A 48.948284 8.6066771 0 1 1  12.570599,132.28575 A 48.948284 8.6066771 0 1 1  110.46717 132.28575 z"
     transform="matrix(0.73406,0,0,0.809524,59.347811,63.995447)" />
  <path
     style="fill:#646464;fill-opacity:1"
     d="M 107.59375,0 C 74.969982,0 48.572933,9.5931171 28.5,28.6875 C 9.501691,46.686854 2.7549898e-17,68.782099 0,95.0625 C 0,123.01969 8.7638506,146.29393 26.34375,164.875 C 45.72893,185.68034 72.590456,196.125 107.0625,196.125 C 141.83548,196.125 169.08349,185.68034 188.8125,164.875 C 194.09346,159.40038 198.58486,153.5073 202.3125,147.21875 L 162.125,147.21875 C 151.71554,166.51393 133.62633,176.24301 107.84375,176.40625 C 84.80506,176.71421 67.51939,167.60046 56,149.15625 C 46.973685,134.68149 42.499998,116.6549 42.5,95.0625 C 42.5,47.976766 63.99392,23.391001 107.0625,21.40625 C 130.35913,22.261743 147.59803,30.518031 158.6875,46.15625 C 160.79864,49.060698 162.64625,52.154302 164.28125,55.40625 L 207.0625,55.40625 C 202.36242,45.663814 195.74812,36.768402 187.21875,28.6875 C 166.75895,9.593117 140.21761,-1.0777714e-17 107.59375,0 z "
     id="path2196"
     inkscape:export-filename="/home/sbehnel/source/Python/pyrex/cython-logo-C.png"
     inkscape:export-xdpi="83.080002"
     inkscape:export-ydpi="83.080002" />
  <g
     id="g3206"
     transform="matrix(1.1081583,0,0,1.1081583,-5.641244,-12.285301)">
    <path
       id="path1948"
       d="M 103.60839,43.38407 C 99.024734,43.405368 94.647448,43.796288 90.795887,44.47782 C 79.449671,46.482324 77.389638,50.677922 77.389637,58.41532 L 77.389637,68.63407 L 104.20214,68.63407 L 104.20214,72.04032 L 77.389637,72.04032 L 67.327137,72.04032 C 59.534678,72.04032 52.711378,76.724037 50.577137,85.63407 C 48.115317,95.847036 48.006122,102.22009 50.577137,112.88407 C 52.483065,120.82192 57.03468,126.47782 64.827137,126.47782 L 74.045887,126.47782 L 74.045887,114.22782 C 74.045887,105.37792 81.703031,97.571572 90.795887,97.57157 L 117.57714,97.57157 C 125.03209,97.57157 130.98339,91.433406 130.98339,83.94657 L 130.98339,58.41532 C 130.98339,51.148981 124.85341,45.690542 117.57714,44.47782 C 112.97115,43.711095 108.19204,43.362772 103.60839,43.38407 z M 89.108387,51.60282 C 91.877934,51.60282 94.139637,53.901466 94.139637,56.72782 C 94.139635,59.544156 91.877934,61.82157 89.108387,61.82157 C 86.328911,61.821569 84.077137,59.544155 84.077137,56.72782 C 84.077136,53.901467 86.328911,51.60282 89.108387,51.60282 z "
       style="fill:url(#linearGradient3210);fill-opacity:1" />
    <path
       id="path1950"
       d="M 134.32714,72.04032 L 134.32714,83.94657 C 134.32714,93.177325 126.50124,100.94657 117.57714,100.94657 L 90.795887,100.94657 C 83.460054,100.94657 77.389638,107.22505 77.389637,114.57157 L 77.389637,140.10282 C 77.389637,147.36916 83.708225,151.64314 90.795887,153.72782 C 99.283218,156.22343 107.42212,156.67445 117.57714,153.72782 C 124.32729,151.77343 130.98339,147.84021 130.98339,140.10282 L 130.98339,129.88407 L 104.20214,129.88407 L 104.20214,126.47782 L 130.98339,126.47782 L 144.38964,126.47782 C 152.1821,126.47782 155.08589,121.04241 157.79588,112.88407 C 160.59521,104.48518 160.4761,96.408294 157.79588,85.63407 C 155.8701,77.876629 152.19201,72.04032 144.38964,72.04032 L 134.32714,72.04032 z M 119.26464,136.69657 C 122.04412,136.69657 124.29589,138.97399 124.29589,141.79032 C 124.29588,144.61667 122.04411,146.91532 119.26464,146.91532 C 116.49509,146.91532 114.23339,144.61667 114.23339,141.79032 C 114.23339,138.97399 116.49508,136.69657 119.26464,136.69657 z "
       style="fill:url(#linearGradient3212);fill-opacity:1" />
  </g>
</svg>
